<?xml version="1.0" encoding="UTF-8" standalone="no"?>
<!-- Created with Inkscape (http://www.inkscape.org/) -->

<svg
   xmlns:dc="http://purl.org/dc/elements/1.1/"
   xmlns:cc="http://creativecommons.org/ns#"
   xmlns:rdf="http://www.w3.org/1999/02/22-rdf-syntax-ns#"
   xmlns:svg="http://www.w3.org/2000/svg"
   xmlns="http://www.w3.org/2000/svg"
   xmlns:sodipodi="http://sodipodi.sourceforge.net/DTD/sodipodi-0.dtd"
   xmlns:inkscape="http://www.inkscape.org/namespaces/inkscape"
   width="577.85712"
   height="579.75549"
   id="svg3660"
   version="1.1"
   inkscape:version="0.48.2 r9819"
   sodipodi:docname="SDC_House.svg"
   inkscape:export-filename="C:\Users\Anne\Google Drive\SDC\Funding\SDC_PressKit\SDC_House.png"
   inkscape:export-xdpi="90"
   inkscape:export-ydpi="90">
  <defs
     id="defs3662" />
  <sodipodi:namedview
     id="base"
     pagecolor="#ffffff"
     bordercolor="#ffffff"
     borderopacity="0.0"
     inkscape:pageopacity="0.0"
     inkscape:pageshadow="0"
     inkscape:zoom="0.35"
     inkscape:cx="724.64286"
     inkscape:cy="73.114112"
     inkscape:document-units="px"
     inkscape:current-layer="layer1"
     showgrid="false"
     inkscape:window-width="1366"
     inkscape:window-height="706"
     inkscape:window-x="-8"
     inkscape:window-y="-8"
     inkscape:window-maximized="1"
     fit-margin-top="10"
     fit-margin-left="10"
     fit-margin-right="10"
     fit-margin-bottom="10" />
  <metadata
     id="metadata3665">
    <rdf:RDF>
      <cc:Work
         rdf:about="">
        <dc:format>image/svg+xml</dc:format>
        <dc:type
           rdf:resource="http://purl.org/dc/dcmitype/StillImage" />
        <dc:title></dc:title>
      </cc:Work>
    </rdf:RDF>
  </metadata>
  <g
     inkscape:label="Layer 1"
     inkscape:groupmode="layer"
     id="layer1"
     transform="translate(374.64286,-25.720745)">
    <g
       transform="matrix(1.6652452,0,0,1.6652452,-685.20256,-279.09386)"
       id="Layer_1"
       inkscape:export-xdpi="90"
       inkscape:export-ydpi="90">
      <g
         style="display:none"
         display="none"
         id="g5">
        <text
           style="font-size:247.89930725px;display:inline;font-family:GillSansMT-Condensed"
           transform="matrix(1.0877,0,0,1,221.0303,443.1836)"
           display="inline"
           font-size="247.8993"
           id="text7">SDC</text>
        <text
           style="display:inline"
           transform="translate(218.9878,487.1836)"
           display="inline"
           id="text9">
          <tspan
             style="font-size:54.15209961px;font-family:GillSansMT-Condensed"
             x="0"
             y="0"
             font-size="54.1521"
             id="tspan11">student dormitory</tspan>
          <tspan
             style="font-size:54.15209961px;font-family:GillSansMT-Condensed"
             x="88.010002"
             y="40.283001"
             font-size="54.1521"
             id="tspan13">council</tspan>
        </text>
        <polygon
           style="display:inline"
           display="inline"
           points="360,189.05 217.179,252.525 217.179,274.498 360,211.022 502.821,274.498 502.821,252.525 "
           id="polygon15" />
      </g>
      <g
         id="g17">
        <g
           id="g19">
          <path
             inkscape:connector-curvature="0"
             d="m 229.72,438.947 v -22.03 c 6.933,6.052 13.647,9.078 20.144,9.078 4.826,0 8.953,-1.561 12.376,-4.685 3.423,-3.123 5.135,-6.887 5.135,-11.293 0,-3.792 -0.967,-8.392 -2.896,-13.799 -1.932,-5.406 -7.132,-15.392 -15.602,-29.959 -8.472,-14.565 -13.979,-25.601 -16.524,-33.105 -2.546,-7.505 -3.818,-14.121 -3.818,-19.852 0,-11.136 3.444,-20.233 10.335,-27.295 6.89,-7.061 15.688,-10.591 26.398,-10.591 6.056,0 12.508,1.452 19.354,4.357 v 20.093 c -6.32,-3.389 -11.718,-5.084 -16.195,-5.084 -11.675,0 -17.511,5.247 -17.511,15.736 0,3.874 0.988,8.534 2.962,13.981 1.975,5.447 7.196,15.373 15.668,29.777 8.47,14.404 13.957,25.38 16.458,32.924 2.501,7.547 3.752,14.223 3.752,20.033 0,11.299 -3.446,20.478 -10.335,27.537 -6.892,7.063 -15.822,10.592 -26.793,10.592 -7.899,0 -15.535,-2.138 -22.908,-6.415 z"
             id="path21" />
          <path
             inkscape:connector-curvature="0"
             d="M 311.614,443.184 V 277.595 h 25.542 c 41.166,0 61.75,27.519 61.75,82.552 0,27.519 -5.114,48.236 -15.339,62.157 -10.226,13.92 -24.6,20.88 -43.119,20.88 h -28.834 z m 23.173,-19.852 h 3.423 c 13.693,0 23.37,-4.82 29.031,-14.465 5.662,-9.642 8.493,-25.559 8.493,-47.752 0,-23.159 -2.679,-39.561 -8.032,-49.205 -5.354,-9.642 -15.009,-14.465 -28.965,-14.465 h -3.95 v 125.887 z"
             id="path23" />
          <path
             inkscape:connector-curvature="0"
             d="m 493.835,413.648 v 22.394 c -8.689,6.215 -17.863,9.32 -27.518,9.32 -15.45,0 -27.386,-7.263 -35.813,-21.788 -8.426,-14.525 -12.64,-35.264 -12.64,-62.217 0,-26.951 4.234,-48.013 12.706,-63.185 8.47,-15.17 20.56,-22.756 36.272,-22.756 7.548,0 15.843,2.865 24.885,8.594 v 21.546 c -7.726,-6.858 -15.45,-10.289 -23.173,-10.289 -9.305,0 -16.042,5.014 -20.21,15.042 -4.17,10.028 -6.254,26.723 -6.254,50.081 0,23.118 2.106,39.75 6.319,49.899 4.213,10.148 11.191,15.223 20.935,15.223 6.672,-10e-4 14.834,-3.953 24.491,-11.864 z"
             id="path25" />
        </g>
        <g
           id="g27">
          <path
             inkscape:connector-curvature="0"
             d="m 231.05,471.032 c 0,0 -2.433,-0.649 -5.122,-0.649 -2.774,0 -5.25,0.603 -5.25,3.57 0,2.18 2.262,2.736 4.823,3.571 4.097,1.391 6.829,2.318 6.829,6.909 0,4.127 -3.286,6.26 -7.17,6.26 -4.823,0 -7.085,-2.04 -7.085,-2.04 l 0.64,-1.53 c 0,0 2.774,1.113 5.676,1.113 4.268,0 5.42,-1.716 5.42,-3.988 0,-2.318 -1.622,-3.061 -4.865,-3.941 -3.244,-0.928 -6.786,-2.226 -6.786,-6.214 0,-4.359 3.372,-6.075 7.213,-6.075 3.329,0 6.188,1.438 6.188,1.438 l -0.511,1.576 z"
             id="path29" />
          <path
             inkscape:connector-curvature="0"
             d="m 246.966,488.978 c 0,0 -2.219,1.716 -4.438,1.716 -3.414,0 -5.335,-2.226 -5.335,-7.28 v -12.381 h -3.585 v -2.458 h 3.585 v -2.364 c 0,-2.922 0.683,-5.287 0.683,-5.287 h 1.92 v 7.651 h 5.036 v 2.458 c -2.177,0 -3.841,-0.14 -5.036,-0.324 v 12.705 c 0,4.174 1.323,4.962 2.945,4.962 1.665,0 3.67,-1.021 3.67,-1.021 l 0.555,1.623 z"
             id="path31" />
          <path
             inkscape:connector-curvature="0"
             d="m 248.671,480.909 v -12.335 h 2.561 v 12.335 c 0,3.988 1.152,7.42 4.054,7.42 2.348,0 4.225,-1.809 6.018,-4.359 v -15.396 h 2.603 v 21.609 h -2.091 c 0,0 -0.213,-1.669 -0.384,-3.292 -1.195,1.576 -3.415,3.802 -6.316,3.802 -4.823,0 -6.445,-3.894 -6.445,-9.784 z"
             id="path33" />
          <path
             inkscape:connector-curvature="0"
             d="m 283.024,490.184 h -2.091 c 0,0 -0.256,-1.669 -0.384,-3.246 -1.195,1.577 -3.372,3.803 -6.274,3.803 -5.25,0 -6.957,-5.101 -6.957,-10.48 0,-9.32 3.841,-12.195 8.92,-12.195 1.75,0 3.329,0.835 4.183,1.576 v -11.129 h 2.604 v 31.671 z m -8.536,-1.809 c 2.305,0 4.14,-1.854 5.933,-4.405 v -11.917 c -0.726,-0.696 -2.006,-1.67 -4.012,-1.67 -3.201,0 -6.359,0.881 -6.359,9.877 0,4.034 1.067,8.115 4.438,8.115 z"
             id="path35" />
          <path
             inkscape:connector-curvature="0"
             d="m 301.245,487.17 0.555,1.622 c 0,0 -2.603,1.901 -6.444,1.901 -5.207,0 -8.92,-4.034 -8.92,-11.082 0,-7.28 4.268,-11.594 8.664,-11.594 5.633,0 7.042,6.121 7.042,11.408 l -13.103,0.231 c 0,6.075 3.628,8.579 6.786,8.579 3.372,10e-4 5.42,-1.065 5.42,-1.065 z m -12.12,-9.321 c 0.811,-0.139 3.713,-0.603 10.414,-0.788 -0.085,-3.478 -1.537,-6.724 -4.438,-6.724 -2.69,0 -5.422,2.735 -5.976,7.512 z"
             id="path37" />
          <path
             inkscape:connector-curvature="0"
             d="m 320.832,477.756 v 12.428 h -2.604 v -12.428 c 0,-3.987 -1.152,-7.373 -4.055,-7.373 -2.347,0 -4.225,1.809 -6.018,4.359 v 15.441 h -2.604 v -21.609 h 2.091 c 0,0 0.256,1.623 0.384,3.246 1.195,-1.576 3.414,-3.803 6.316,-3.803 4.825,10e-4 6.49,3.85 6.49,9.739 z"
             id="path39" />
          <path
             inkscape:connector-curvature="0"
             d="m 337.174,488.978 c 0,0 -2.219,1.716 -4.438,1.716 -3.414,0 -5.335,-2.226 -5.335,-7.28 v -12.381 h -3.585 v -2.458 h 3.585 v -2.364 c 0,-2.922 0.683,-5.287 0.683,-5.287 h 1.92 v 7.651 h 5.036 v 2.458 c -2.177,0 -3.841,-0.14 -5.036,-0.324 v 12.705 c 0,4.174 1.323,4.962 2.945,4.962 1.665,0 3.67,-1.021 3.67,-1.021 l 0.555,1.623 z"
             id="path41" />
          <path
             inkscape:connector-curvature="0"
             d="m 365.253,490.184 h -2.092 c 0,0 -0.256,-1.669 -0.384,-3.246 -1.195,1.577 -3.372,3.803 -6.274,3.803 -5.25,0 -6.957,-5.101 -6.957,-10.48 0,-9.32 3.841,-12.195 8.92,-12.195 1.75,0 3.329,0.835 4.183,1.576 v -11.129 h 2.604 v 31.671 z m -8.536,-1.809 c 2.305,0 4.14,-1.854 5.933,-4.405 v -11.917 c -0.726,-0.696 -2.006,-1.67 -4.012,-1.67 -3.201,0 -6.359,0.881 -6.359,9.877 -10e-4,4.034 1.066,8.115 4.438,8.115 z"
             id="path43" />
          <path
             inkscape:connector-curvature="0"
             d="m 386.461,479.379 c 0,7.466 -4.438,11.314 -8.962,11.314 -4.524,0 -8.835,-3.849 -8.835,-11.314 0,-7.512 4.438,-11.361 8.963,-11.361 4.523,0 8.834,3.849 8.834,11.361 z m -2.689,0 c 0,-6.074 -2.859,-8.903 -6.146,-8.903 -3.116,0 -6.274,2.829 -6.274,8.903 0,6.028 2.689,8.857 6.146,8.857 3.586,0 6.274,-2.829 6.274,-8.857 z"
             id="path45" />
          <path
             inkscape:connector-curvature="0"
             d="m 400.884,468.296 v 3.015 c -7.341,0 -8.408,6.307 -8.408,6.307 v 12.566 h -2.604 v -21.609 h 2.092 c 0,0 0.512,3.479 0.512,5.24 v 0.464 c 0,0 0.299,-1.066 0.854,-1.947 1.024,-1.717 3.243,-4.036 7.554,-4.036 z"
             id="path47" />
          <path
             inkscape:connector-curvature="0"
             d="m 429.006,477.756 v 12.428 h -2.604 v -12.428 c 0,-3.987 -0.555,-7.373 -3.457,-7.373 -2.304,0 -3.713,1.763 -5.42,4.313 v 15.488 h -2.604 v -13.309 c 0,-3.524 -0.726,-6.492 -3.457,-6.492 -2.305,0 -3.756,1.809 -5.42,4.313 v 15.488 h -2.604 v -21.609 h 2.092 c 0,0 0.256,1.577 0.384,3.153 1.024,-1.576 2.859,-3.71 5.719,-3.71 3.073,0 4.609,1.53 5.335,4.405 0.939,-1.576 2.859,-4.405 6.146,-4.405 4.865,0 5.89,3.849 5.89,9.738 z"
             id="path49" />
          <path
             inkscape:connector-curvature="0"
             d="m 434.848,464.957 c -0.854,0 -1.579,-0.695 -1.579,-1.622 0,-0.882 0.726,-1.623 1.579,-1.623 0.853,0 1.536,0.741 1.536,1.623 0,0.927 -0.683,1.622 -1.536,1.622 z m 1.28,3.617 v 21.609 h -2.604 v -21.609 h 2.604 z"
             id="path51" />
          <path
             inkscape:connector-curvature="0"
             d="m 452.729,488.978 c 0,0 -2.219,1.716 -4.438,1.716 -3.414,0 -5.335,-2.226 -5.335,-7.28 v -12.381 h -3.585 v -2.458 h 3.585 v -2.364 c 0,-2.922 0.683,-5.287 0.683,-5.287 h 1.921 v 7.651 h 5.036 v 2.458 c -2.177,0 -3.841,-0.14 -5.036,-0.324 v 12.705 c 0,4.174 1.323,4.962 2.945,4.962 1.664,0 3.67,-1.021 3.67,-1.021 l 0.554,1.623 z"
             id="path53" />
          <path
             inkscape:connector-curvature="0"
             d="m 470.949,479.379 c 0,7.466 -4.438,11.314 -8.962,11.314 -4.524,0 -8.835,-3.849 -8.835,-11.314 0,-7.512 4.438,-11.361 8.963,-11.361 4.524,0 8.834,3.849 8.834,11.361 z m -2.688,0 c 0,-6.074 -2.859,-8.903 -6.146,-8.903 -3.116,0 -6.274,2.829 -6.274,8.903 0,6.028 2.689,8.857 6.146,8.857 3.585,0 6.274,-2.829 6.274,-8.857 z"
             id="path55" />
          <path
             inkscape:connector-curvature="0"
             d="m 485.372,468.296 v 3.015 c -7.341,0 -8.408,6.307 -8.408,6.307 v 12.566 h -2.604 v -21.609 h 2.092 c 0,0 0.512,3.479 0.512,5.24 v 0.464 c 0,0 0.299,-1.066 0.854,-1.947 1.024,-1.717 3.244,-4.036 7.554,-4.036 z"
             id="path57" />
          <path
             inkscape:connector-curvature="0"
             d="m 503.209,468.574 -7.085,25.041 c -1.195,4.266 -2.987,6.771 -6.188,6.771 -1.408,0 -2.773,-0.696 -3.67,-1.716 l 0.896,-1.577 c 0.597,0.371 1.579,0.881 2.603,0.881 2.006,0 3.073,-2.179 3.842,-5.054 l 0.726,-2.736 h -1.75 l -6.786,-21.609 h 2.816 l 6.274,19.848 5.634,-19.848 h 2.688 z"
             id="path59" />
          <path
             inkscape:connector-curvature="0"
             d="m 321.706,521.573 0.555,1.715 c 0,0 -2.262,1.901 -6.402,1.901 -4.524,0 -8.365,-3.987 -8.365,-11.129 0,-7.095 3.756,-11.547 8.322,-11.547 3.713,0 6.018,1.901 6.018,1.901 l -0.555,1.716 c 0,0 -2.134,-1.205 -4.823,-1.205 -3.713,0 -6.401,3.802 -6.401,9.135 0,5.24 2.731,8.765 6.444,8.765 3.116,0 5.207,-1.252 5.207,-1.252 z"
             id="path61" />
          <path
             inkscape:connector-curvature="0"
             d="m 341.336,513.875 c 0,7.466 -4.439,11.314 -8.963,11.314 -4.524,0 -8.834,-3.849 -8.834,-11.314 0,-7.512 4.438,-11.361 8.962,-11.361 4.524,0 8.835,3.849 8.835,11.361 z m -2.689,0 c 0,-6.074 -2.859,-8.903 -6.146,-8.903 -3.115,0 -6.273,2.829 -6.273,8.903 0,6.028 2.688,8.857 6.146,8.857 3.584,0 6.273,-2.829 6.273,-8.857 z"
             id="path63" />
          <path
             inkscape:connector-curvature="0"
             d="M 344.746,515.405 V 503.07 h 2.561 v 12.335 c 0,3.988 1.152,7.42 4.054,7.42 2.348,0 4.226,-1.809 6.018,-4.359 V 503.07 h 2.603 v 21.609 h -2.091 c 0,0 -0.213,-1.669 -0.384,-3.292 -1.195,1.576 -3.415,3.802 -6.316,3.802 -4.823,0 -6.445,-3.894 -6.445,-9.784 z"
             id="path65" />
          <path
             inkscape:connector-curvature="0"
             d="m 379.526,512.252 v 12.428 h -2.604 v -12.428 c 0,-3.987 -1.152,-7.373 -4.055,-7.373 -2.347,0 -4.225,1.809 -6.018,4.359 v 15.441 h -2.604 V 503.07 h 2.092 c 0,0 0.256,1.623 0.384,3.246 1.195,-1.576 3.414,-3.803 6.316,-3.803 4.824,0.001 6.489,3.85 6.489,9.739 z"
             id="path67" />
          <path
             inkscape:connector-curvature="0"
             d="m 397.149,521.573 0.555,1.715 c 0,0 -2.262,1.901 -6.401,1.901 -4.524,0 -8.365,-3.987 -8.365,-11.129 0,-7.095 3.756,-11.547 8.322,-11.547 3.713,0 6.018,1.901 6.018,1.901 l -0.555,1.716 c 0,0 -2.134,-1.205 -4.822,-1.205 -3.713,0 -6.402,3.802 -6.402,9.135 0,5.24 2.731,8.765 6.444,8.765 3.116,0 5.206,-1.252 5.206,-1.252 z"
             id="path69" />
          <path
             inkscape:connector-curvature="0"
             d="m 402.269,499.453 c -0.854,0 -1.579,-0.695 -1.579,-1.622 0,-0.882 0.726,-1.623 1.579,-1.623 0.853,0 1.536,0.741 1.536,1.623 0,0.927 -0.683,1.622 -1.536,1.622 z m 1.28,3.617 v 21.609 h -2.604 V 503.07 h 2.604 z"
             id="path71" />
          <path
             inkscape:connector-curvature="0"
             d="m 412.51,523.474 -0.299,1.716 c -4.268,-0.51 -4.097,-6.074 -4.097,-10.943 V 492.22 h 2.604 v 22.026 c 0,5.008 -0.043,7.883 1.792,9.228 z"
             id="path73" />
        </g>
        <polygon
           points="360,189.05 192.5,263.512 192.5,285.484 360,211.022 527.5,285.484 527.5,263.512 "
           id="polygon75" />
        <rect
           x="208.91"
           y="189.05"
           width="5.493"
           height="256.479"
           id="rect77" />
      </g>
    </g>
  </g>
</svg>
